<svg width="24" height="19" viewBox="0 0 24 19" fill="none" xmlns="http://www.w3.org/2000/svg">
<path d="M22.2 0.399994H1.8C0.805664 0.399994 0 1.20566 0 2.19999C0 3.19433 0.805664 3.99999 1.8 3.99999H22.2C23.1943 3.99999 24 3.19433 24 2.19999C24 1.20566 23.1943 0.399994 22.2 0.399994Z" fill="black"/>
<path d="M18.7998 7.6001H1.8C0.805664 7.6001 0 8.40576 0 9.4001C0 10.3944 0.805664 11.2001 1.8 11.2001H18.7998C19.7941 11.2001 20.5998 10.3944 20.5998 9.4001C20.5998 8.40576 19.7941 7.6001 18.7998 7.6001Z" fill="black"/>
<path d="M12 14.8001H1.8C0.805664 14.8001 0 15.6057 0 16.6001C0 17.5944 0.805664 18.4001 1.8 18.4001H12C12.9943 18.4001 13.8 17.5944 13.8 16.6001C13.8 15.6057 12.9943 14.8001 12 14.8001Z" fill="black"/>
</svg>
