<svg width="17" height="18" viewBox="0 0 17 18" fill="none" xmlns="http://www.w3.org/2000/svg">
<g id="Component 2">
<path id="Vector" d="M8.09968 0C5.24128 0 2.91568 2.01855 2.91568 4.49955V7.31357H2.268C1.01723 7.31357 0 8.19666 0 9.28212V16.0314C0 17.1169 1.01723 18 2.268 18H13.932C15.1824 18 16.2 17.1169 16.2 16.0314V9.28212C16.2 8.19666 15.1824 7.31357 13.932 7.31357H13.2837V4.49955C13.2837 2.01855 10.9581 0 8.09968 0ZM4.85968 4.49955C4.85968 2.94901 6.31327 1.68733 8.09968 1.68733C9.88608 1.68733 11.3397 2.94901 11.3397 4.49955V7.31357H4.85968V4.49955ZM4.536 13.5061C3.9981 13.5061 3.564 13.1293 3.564 12.6624C3.564 12.1955 3.9981 11.8187 4.536 11.8187C5.07358 11.8187 5.508 12.1955 5.508 12.6624C5.508 13.1293 5.07358 13.5061 4.536 13.5061ZM8.1 13.5061C7.5621 13.5061 7.128 13.1293 7.128 12.6624C7.128 12.1955 7.5621 11.8187 8.1 11.8187C8.63758 11.8187 9.072 12.1955 9.072 12.6624C9.072 13.1293 8.63758 13.5061 8.1 13.5061ZM11.664 13.5061C11.1261 13.5061 10.692 13.1293 10.692 12.6624C10.692 12.1955 11.1261 11.8187 11.664 11.8187C12.2016 11.8187 12.636 12.1955 12.636 12.6624C12.636 13.1293 12.2016 13.5061 11.664 13.5061Z" fill="#97BDFF"/>
</g>
</svg>
