<?xml version="1.0" encoding="utf-8"?>
<!-- Generator: Adobe Illustrator 24.1.1, SVG Export Plug-In . SVG Version: 6.00 Build 0)  -->
<svg version="1.1" id="Layer_1" xmlns="http://www.w3.org/2000/svg" xmlns:xlink="http://www.w3.org/1999/xlink" x="0px" y="0px"
	 viewBox="0 0 512 512" style="enable-background:new 0 0 512 512;" xml:space="preserve">
<g>
	<path d="M49.9,469l33.2-99.8c2.5-7.5,1.4-15.8-3.1-22.4c-19.5-28.9-28.5-60.1-28.5-90.9c0.1-59.6,33.9-118.6,98.1-153h0
		c33.2-17.7,69.9-26.3,106.3-26.3c70.6,0,138.8,32.2,176.3,88c19.5,28.9,28.5,60.1,28.5,90.9c-0.1,59.6-33.9,118.6-98.1,153l0,0
		c-32.5,17.4-69.5,26.2-106.5,26.2c-34.2,0-68.4-7.5-99.2-22.5c-5.1-2.5-10.9-3.2-16.5-2L20.3,435.9c-13.8,2.9-22.6,16.5-19.7,30.3
		c2.9,13.8,16.5,22.6,30.3,19.7l120.2-25.6l-5.3-25l-11.2,23c38.1,18.5,79.8,27.6,121.5,27.6c45.1,0,90.3-10.7,130.7-32.3l0,0
		c79.5-42.3,125.3-118.8,125.2-198.2c0-40.9-12.2-82.5-37.3-119.6c-48.8-71.9-133-110.5-218.7-110.5c-44.3,0-89.4,10.4-130.4,32.3h0
		C46,100.1,0.3,176.6,0.3,255.9c0,40.9,12.2,82.5,37.3,119.5l21.2-14.3l-24.3-8.1L1.3,452.8c-4.5,13.4,2.8,27.9,16.2,32.4
		C30.9,489.7,45.4,482.4,49.9,469L49.9,469z"/>
	<path d="M230.2,256.3v0.2c0,14.1,11.5,25.6,25.6,25.6c14.1,0,25.6-11.5,25.6-25.6v-0.2c0-14.1-11.5-25.6-25.6-25.6
		C241.7,230.7,230.2,242.2,230.2,256.3"/>
	<path d="M127.9,256.3v0.2c0,14.1,11.5,25.6,25.6,25.6s25.6-11.5,25.6-25.6v-0.2c0-14.1-11.5-25.6-25.6-25.6
		S127.9,242.2,127.9,256.3"/>
	<path d="M332.5,256.3v0.2c0,14.1,11.5,25.6,25.6,25.6c14.1,0,25.6-11.5,25.6-25.6v-0.2c0-14.1-11.5-25.6-25.6-25.6
		C344,230.7,332.5,242.2,332.5,256.3"/>
</g>
</svg>
